<?xml version="1.0" standalone="no"?>
<!DOCTYPE svg PUBLIC "-//W3C//DTD SVG 20010904//EN"
 "http://www.w3.org/TR/2001/REC-SVG-20010904/DTD/svg10.dtd">
<svg version="1.0" xmlns="http://www.w3.org/2000/svg"
 width="1920.000000pt" height="1920.000000pt" viewBox="0 0 1920.000000 1920.000000"
 preserveAspectRatio="xMidYMid meet">
<metadata>
Created by potrace 1.14, written by Peter Selinger 2001-2017
</metadata>
<g transform="translate(0.000000,1920.000000) scale(0.100000,-0.100000)"
fill="#000000" stroke="none">
<path d="M9228 19195 c-2 -1 -65 -6 -140 -9 -75 -4 -156 -8 -180 -11 -24 -2
-81 -7 -128 -10 -82 -5 -118 -9 -217 -21 -27 -3 -68 -7 -93 -10 -25 -2 -58 -6
-75 -9 -16 -2 -50 -7 -75 -10 -44 -5 -214 -30 -275 -40 -56 -9 -90 -15 -111
-19 -12 -2 -37 -7 -55 -10 -19 -3 -45 -8 -59 -11 -14 -3 -41 -8 -60 -11 -19
-3 -51 -9 -70 -14 -19 -5 -51 -12 -70 -15 -39 -7 -75 -15 -205 -46 -49 -11
-98 -22 -107 -24 -252 -51 -1049 -308 -1313 -425 -11 -5 -101 -43 -200 -85
-99 -43 -258 -116 -355 -163 -96 -47 -177 -86 -180 -87 -5 -1 -14 -5 -150 -78
-152 -80 -235 -127 -455 -257 -157 -92 -531 -338 -634 -417 -9 -6 -79 -58
-156 -115 -77 -56 -142 -105 -145 -108 -3 -3 -61 -50 -130 -105 -69 -55 -127
-102 -130 -105 -3 -3 -32 -27 -65 -55 -67 -56 -98 -83 -159 -138 -22 -20 -78
-70 -123 -110 -99 -87 -518 -508 -623 -626 -41 -46 -80 -89 -85 -95 -20 -22
-141 -163 -180 -210 -22 -27 -45 -54 -50 -60 -6 -6 -26 -31 -45 -56 -19 -25
-37 -47 -40 -50 -3 -3 -21 -25 -40 -50 -19 -25 -38 -49 -43 -55 -10 -13 -146
-193 -170 -226 -152 -208 -406 -593 -497 -753 -9 -17 -51 -89 -92 -161 -86
-149 -291 -537 -293 -555 -1 -3 -20 -45 -44 -95 -117 -245 -241 -542 -341
-820 -18 -49 -35 -97 -38 -105 -3 -8 -6 -17 -7 -20 0 -3 -25 -77 -54 -165 -29
-88 -63 -198 -77 -245 -13 -47 -30 -105 -39 -130 -12 -36 -43 -158 -90 -350
-18 -73 -35 -151 -40 -179 -3 -19 -8 -37 -10 -41 -3 -4 -7 -22 -10 -41 -3 -19
-14 -79 -25 -134 -23 -111 -55 -296 -65 -365 -3 -25 -10 -70 -15 -100 -5 -30
-11 -75 -14 -100 -3 -25 -7 -61 -10 -80 -5 -37 -11 -86 -21 -185 -3 -33 -8
-73 -10 -90 -2 -16 -7 -70 -11 -120 -3 -49 -7 -106 -9 -125 -26 -271 -26
-1211 0 -1371 2 -13 6 -69 9 -124 3 -55 8 -111 10 -125 2 -14 7 -57 10 -95 4
-39 8 -81 10 -95 3 -14 8 -52 11 -85 4 -33 9 -69 10 -80 2 -11 8 -56 14 -100
6 -44 13 -91 16 -105 2 -14 13 -79 24 -145 150 -880 428 -1744 823 -2555 118
-243 116 -239 158 -315 240 -437 438 -755 678 -1090 66 -92 242 -326 252 -335
3 -3 41 -50 85 -105 44 -55 89 -111 101 -125 12 -14 52 -61 90 -105 83 -96 70
-82 174 -196 93 -104 520 -533 615 -619 34 -30 92 -82 129 -115 38 -33 74 -65
80 -70 14 -13 124 -105 149 -125 11 -8 24 -20 31 -25 6 -6 34 -28 61 -50 28
-22 52 -42 55 -46 11 -11 232 -180 350 -266 218 -158 583 -398 785 -513 115
-66 157 -90 161 -90 2 0 21 -11 42 -23 71 -45 348 -188 542 -280 803 -379
1710 -661 2550 -792 19 -3 46 -7 60 -10 14 -2 45 -7 70 -10 25 -3 70 -10 100
-15 30 -5 84 -12 120 -16 36 -3 73 -8 82 -9 9 -2 45 -6 80 -10 35 -3 81 -8
103 -10 91 -9 201 -17 415 -32 235 -16 944 -9 1210 12 30 2 92 7 137 10 44 3
89 7 100 9 10 2 58 7 108 11 49 3 92 8 95 10 3 2 37 6 75 10 39 4 77 9 85 10
8 2 51 8 95 15 110 16 132 19 195 30 30 5 73 12 95 15 22 4 47 8 55 10 8 2 31
7 50 10 164 28 522 110 775 179 352 96 839 263 1110 381 17 7 75 32 130 55
383 163 883 423 1240 645 33 20 76 47 95 58 19 12 84 54 144 94 60 40 112 73
116 73 5 0 10 3 12 8 2 4 23 20 48 37 25 16 47 33 50 36 4 5 58 43 154 109 80
55 464 357 542 426 12 11 48 42 79 69 190 163 253 223 505 475 202 202 329
334 420 440 12 14 34 39 48 55 24 27 91 106 147 173 11 14 25 30 30 36 6 6 26
31 45 56 19 25 37 47 40 50 4 3 47 59 98 125 50 66 95 125 100 130 89 110 552
804 552 829 0 2 25 45 55 95 30 51 55 94 55 96 0 2 15 30 34 62 199 346 438
869 611 1338 120 326 256 776 320 1055 20 85 56 249 59 265 2 11 14 67 26 125
12 58 23 119 25 135 3 17 7 41 10 55 9 42 13 63 19 115 4 28 9 57 11 65 2 8 6
38 10 65 3 28 10 75 15 105 5 30 12 82 15 115 4 33 8 71 10 84 3 14 7 54 10
90 3 36 8 77 10 91 2 14 7 70 11 125 3 55 8 108 9 117 26 136 26 1222 0 1393
-3 17 -7 71 -10 120 -3 50 -7 101 -9 115 -3 14 -7 57 -10 95 -4 39 -8 81 -10
95 -3 14 -8 52 -11 85 -4 33 -9 69 -10 80 -2 11 -8 56 -14 100 -6 44 -13 91
-16 105 -2 14 -13 79 -24 145 -20 116 -47 255 -77 400 -8 39 -17 81 -20 95 -9
44 -101 401 -138 533 -67 237 -252 777 -311 904 -8 17 -15 34 -15 38 0 3 -11
31 -25 61 -14 30 -25 57 -25 59 0 33 -334 723 -432 893 -26 46 -48 85 -48 87
0 21 -351 581 -486 775 -64 91 -322 440 -333 450 -3 3 -42 50 -86 105 -86 108
-88 110 -191 230 -187 217 -593 636 -795 820 -36 33 -94 85 -129 115 -35 30
-68 60 -74 65 -6 6 -38 33 -71 60 -33 28 -62 52 -65 56 -16 17 -365 289 -475
370 -230 169 -631 432 -820 539 -16 9 -82 46 -145 82 -289 163 -620 327 -910
450 -52 22 -119 51 -148 64 -29 13 -57 24 -63 24 -6 0 -23 6 -37 14 -61 33
-563 208 -802 280 -339 102 -849 218 -1190 271 -19 3 -46 7 -60 10 -14 2 -45
7 -70 10 -25 3 -70 10 -100 15 -30 5 -84 12 -120 16 -36 3 -72 7 -80 9 -20 4
-109 13 -195 21 -38 3 -83 8 -100 9 -16 2 -80 6 -142 10 -61 4 -124 9 -140 11
-31 5 -910 14 -915 9z"/>
</g>
</svg>
